ffmpeg version n4.3.1-29-g89daac5fe2 Copyright (c) 2000-2021 the FFmpeg developers
  built with gcc 9.3-win32 (GCC) 20200320
  configuration: --prefix=/ffbuild/prefix --pkg-config-flags=--static --pkg-config=pkg-config --cross-prefix=x86_64-w64-mingw32- --arch=x86_64 --target-os=mingw32 --enable-version3 --disable-debug --disable-w32threads --enable-pthreads --enable-iconv --enable-zlib --enable-libxml2 --enable-libfreetype --enable-libfribidi --enable-gmp --enable-lzma --enable-fontconfig --enable-opencl --enable-libvmaf --disable-vulkan --enable-libvorbis --enable-amf --enable-libaom --disable-avisynth --enable-libdav1d --disable-libdavs2 --enable-ffnvcodec --enable-cuda-llvm --disable-libglslang --enable-libass --enable-libbluray --enable-libmp3lame --enable-libopus --enable-libtheora --enable-libvpx --enable-libwebp --enable-libmfx --enable-libopencore-amrnb --enable-libopencore-amrwb --enable-libopenjpeg --enable-librav1e --disable-librubberband --enable-schannel --enable-sdl2 --enable-libsoxr --enable-libsrt --enable-libtwolame --disable-libvidstab --disable-libx264 --disable-libx265 --disable-libxavs2 --disable-libxvid --enable-libzimg --extra-cflags=-DLIBTWOLAME_STATIC --extra-cxxflags= --extra-ldflags=-pthread --extra-libs=-lgomp
  libavutil      56. 51.100 / 56. 51.100
  libavcodec     58. 91.100 / 58. 91.100
  libavformat    58. 45.100 / 58. 45.100
  libavdevice    58. 10.100 / 58. 10.100
  libavfilter     7. 85.100 /  7. 85.100
  libswscale      5.  7.100 /  5.  7.100
  libswresample   3.  7.100 /  3.  7.100
Splitting the commandline.
Reading option '-v' ... matched as option 'v' (set logging level) with argument 'debug'.
Reading option '-nostdin' ... matched as option 'stdin' (enable or disable interaction on standard input) with argument 0.
Reading option '-progress' ... matched as option 'progress' (write program-readable progress information) with argument 'C:/Users/MRem/AppData/Local/Temp/KritaFFmpegProgress.aFkErL'.
Reading option '-r' ... matched as option 'r' (set frame rate (Hz value, fraction or abbreviation)) with argument '3'.
Reading option '-start_number' ... matched as AVOption 'start_number' with argument '0'.
Reading option '-i' ... matched as input url with argument 'C:/Users/MRem/Documents/GitHub/Game/Game/ComandWork/Game/nya/img/frame%04d.png'.
Reading option '-i' ... matched as input url with argument 'C:/Users/MRem/Documents/GitHub/Game/Game/ComandWork/Game/nya/img/palette.png'.
Reading option '-lavfi' ... matched as option 'lavfi' (create a complex filtergraph) with argument 'scale=w=46:h=30[0:v];[0:v][1:v] paletteuse'.
Reading option '-y' ... matched as option 'y' (overwrite output files) with argument '1'.
Reading option 'C:/Users/MRem/Documents/GitHub/Game/Game/ComandWork/Game/nya/img/ground.gif' ... matched as output url.
Finished splitting the commandline.
Parsing a group of options: global .
Applying option v (set logging level) with argument debug.
Applying option nostdin (enable or disable interaction on standard input) with argument 0.
Applying option progress (write program-readable progress information) with argument C:/Users/MRem/AppData/Local/Temp/KritaFFmpegProgress.aFkErL.
[file @ 000001f865035800] Setting default whitelist 'file,crypto,data'
Applying option lavfi (create a complex filtergraph) with argument scale=w=46:h=30[0:v];[0:v][1:v] paletteuse.
Applying option y (overwrite output files) with argument 1.
Successfully parsed a group of options.
Parsing a group of options: input url C:/Users/MRem/Documents/GitHub/Game/Game/ComandWork/Game/nya/img/frame%04d.png.
Applying option r (set frame rate (Hz value, fraction or abbreviation)) with argument 3.
Successfully parsed a group of options.
Opening an input file: C:/Users/MRem/Documents/GitHub/Game/Game/ComandWork/Game/nya/img/frame%04d.png.
[image2 @ 000001f865075c00] Opening 'C:/Users/MRem/Documents/GitHub/Game/Game/ComandWork/Game/nya/img/frame0000.png' for reading
[file @ 000001f86386b2c0] Setting default whitelist 'file,crypto,data'
[AVIOContext @ 000001f865080040] Statistics: 3476 bytes read, 0 seeks
[image2 @ 000001f865075c00] Opening 'C:/Users/MRem/Documents/GitHub/Game/Game/ComandWork/Game/nya/img/frame0001.png' for reading
[file @ 000001f86386b500] Setting default whitelist 'file,crypto,data'
[AVIOContext @ 000001f865089040] Statistics: 3487 bytes read, 0 seeks
[image2 @ 000001f865075c00] Opening 'C:/Users/MRem/Documents/GitHub/Game/Game/ComandWork/Game/nya/img/frame0002.png' for reading
[file @ 000001f86386b500] Setting default whitelist 'file,crypto,data'
[AVIOContext @ 000001f865089040] Statistics: 3489 bytes read, 0 seeks
Input #0, image2, from 'C:/Users/MRem/Documents/GitHub/Game/Game/ComandWork/Game/nya/img/frame%04d.png':
  Duration: 00:00:00.12, start: 0.000000, bitrate: N/A
    Stream #0:0, 3, 1/25: Video: png, 1 reference frame, rgba(pc), 45x30 [SAR 196:196 DAR 3:2], 0/1, 25 fps, 25 tbr, 25 tbn, 25 tbc
Successfully opened the file.
Parsing a group of options: input url C:/Users/MRem/Documents/GitHub/Game/Game/ComandWork/Game/nya/img/palette.png.
Successfully parsed a group of options.
Opening an input file: C:/Users/MRem/Documents/GitHub/Game/Game/ComandWork/Game/nya/img/palette.png.
[NULL @ 000001f86386a580] Opening 'C:/Users/MRem/Documents/GitHub/Game/Game/ComandWork/Game/nya/img/palette.png' for reading
[file @ 000001f86386ac80] Setting default whitelist 'file,crypto,data'
[png_pipe @ 000001f86386a580] Format png_pipe probed with size=2048 and score=99
[png_pipe @ 000001f86386a580] Before avformat_find_stream_info() pos: 0 bytes read:731 seeks:0 nb_streams:1
[png_pipe @ 000001f86386a580] After avformat_find_stream_info() pos: 731 bytes read:731 seeks:0 frames:1
Input #1, png_pipe, from 'C:/Users/MRem/Documents/GitHub/Game/Game/ComandWork/Game/nya/img/palette.png':
  Duration: N/A, bitrate: N/A
    Stream #1:0, 1, 1/25: Video: png, 1 reference frame, rgba(pc), 16x16 [SAR 1:1 DAR 1:1], 0/1, 25 tbr, 25 tbn, 25 tbc
Successfully opened the file.
[Parsed_scale_0 @ 000001f86386e040] Setting 'w' to value '46'
[Parsed_scale_0 @ 000001f86386e040] Setting 'h' to value '30'
[Parsed_scale_0 @ 000001f86386e040] w:46 h:30 flags:'bilinear' interl:0
Parsing a group of options: output url C:/Users/MRem/Documents/GitHub/Game/Game/ComandWork/Game/nya/img/ground.gif.
Successfully parsed a group of options.
Opening an output file: C:/Users/MRem/Documents/GitHub/Game/Game/ComandWork/Game/nya/img/ground.gif.
[file @ 000001f865079940] Setting default whitelist 'file,crypto,data'
Successfully opened the file.
detected 4 logical cores
Stream mapping:
  Stream #0:0 (png) -> scale
  Stream #1:0 (png) -> paletteuse:palette
  paletteuse -> Stream #0:0 (gif)
cur_dts is invalid st:0 (0) [init:0 i_done:0 finish:0] (this is harmless if it occurs once at the start per stream)
    Last message repeated 5 times
[Parsed_scale_0 @ 000001f863867980] Setting 'w' to value '46'
[Parsed_scale_0 @ 000001f863867980] Setting 'h' to value '30'
[Parsed_scale_0 @ 000001f863867980] w:46 h:30 flags:'bilinear' interl:0
[graph 0 input from stream 0:0 @ 000001f865614a00] Setting 'video_size' to value '45x30'
[graph 0 input from stream 0:0 @ 000001f865614a00] Setting 'pix_fmt' to value '26'
[graph 0 input from stream 0:0 @ 000001f865614a00] Setting 'time_base' to value '1/3'
[graph 0 input from stream 0:0 @ 000001f865614a00] Setting 'pixel_aspect' to value '196/196'
[graph 0 input from stream 0:0 @ 000001f865614a00] Setting 'frame_rate' to value '3/1'
[graph 0 input from stream 0:0 @ 000001f865614a00] w:45 h:30 pixfmt:rgba tb:1/3 fr:3/1 sar:196/196
[graph 0 input from stream 1:0 @ 000001f865614c80] Setting 'video_size' to value '16x16'
[graph 0 input from stream 1:0 @ 000001f865614c80] Setting 'pix_fmt' to value '26'
[graph 0 input from stream 1:0 @ 000001f865614c80] Setting 'time_base' to value '1/25'
[graph 0 input from stream 1:0 @ 000001f865614c80] Setting 'pixel_aspect' to value '1/1'
[graph 0 input from stream 1:0 @ 000001f865614c80] Setting 'frame_rate' to value '25/1'
[graph 0 input from stream 1:0 @ 000001f865614c80] w:16 h:16 pixfmt:rgba tb:1/25 fr:25/1 sar:1/1
[format @ 000001f8655785c0] Setting 'pix_fmts' to value 'rgb8|bgr8|rgb4_byte|bgr4_byte|gray|pal8'
[auto_scaler_0 @ 000001f865578a40] w:iw h:ih flags:'bilinear' interl:0
[Parsed_paletteuse_1 @ 000001f865591840] auto-inserting filter 'auto_scaler_0' between the filter 'graph 0 input from stream 1:0' and the filter 'Parsed_paletteuse_1'
[AVFilterGraph @ 000001f86558e280] query_formats: 6 queried, 4 merged, 1 already done, 0 delayed
[swscaler @ 000001f86557dd40] Forcing full internal H chroma due to input having non subsampled chroma
[Parsed_scale_0 @ 000001f863867980] w:45 h:30 fmt:rgba sar:196/196 -> w:46 h:30 fmt:bgra sar:45/46 flags:0x2
[swscaler @ 000001f86509e040] Forcing full internal H chroma due to input having non subsampled chroma
[auto_scaler_0 @ 000001f865578a40] w:16 h:16 fmt:rgba sar:1/1 -> w:16 h:16 fmt:bgra sar:1/1 flags:0x2
[Parsed_paletteuse_1 @ 000001f865591840] [framesync @ 000001f865592fc8] Selected 1/75 time base
[Parsed_paletteuse_1 @ 000001f865591840] [framesync @ 000001f865592fc8] Sync level 2
Output #0, gif, to 'C:/Users/MRem/Documents/GitHub/Game/Game/ComandWork/Game/nya/img/ground.gif':
  Metadata:
    encoder         : Lavf58.45.100
    Stream #0:0, 0, 1/100: Video: gif, 1 reference frame, pal8, 46x30 [SAR 45:46 DAR 3:2], 0/1, q=2-31, 200 kb/s, 3 fps, 100 tbn, 3 tbc (default)
    Metadata:
      encoder         : Lavc58.91.100 gif
Clipping frame in rate conversion by 0.000008
[gif @ 000001f865592a80] 4x2 image at pos (8;17) [area:46x30]
[gif @ 000001f865592a80] 5x3 image at pos (8;16) [area:46x30]
[Parsed_paletteuse_1 @ 000001f865591840] [framesync @ 000001f865592fc8] Sync level 0
[out_0_0 @ 000001f8655784c0] EOF on sink link out_0_0:default.
No more output streams to write to, finishing.
frame=    3 fps=0.0 q=-0.0 Lsize=       3kB time=00:00:00.68 bitrate=  39.7kbits/s speed=17.3x    
[AVIOContext @ 000001f8650759c0] Statistics: 0 seeks, 1 writeouts
video:3kB audio:0kB subtitle:0kB other streams:0kB global headers:0kB muxing overhead: 0.596659%
Input file #0 (C:/Users/MRem/Documents/GitHub/Game/Game/ComandWork/Game/nya/img/frame%04d.png):
  Input stream #0:0 (video): 3 packets read (10452 bytes); 3 frames decoded; 
  Total: 3 packets (10452 bytes) demuxed
Input file #1 (C:/Users/MRem/Documents/GitHub/Game/Game/ComandWork/Game/nya/img/palette.png):
  Input stream #1:0 (video): 1 packets read (731 bytes); 1 frames decoded; 
  Total: 1 packets (731 bytes) demuxed
Output file #0 (C:/Users/MRem/Documents/GitHub/Game/Game/ComandWork/Game/nya/img/ground.gif):
  Output stream #0:0 (video): 3 frames encoded; 3 packets muxed (3352 bytes); 
  Total: 3 packets (3352 bytes) muxed
4 frames successfully decoded, 0 decoding errors
[AVIOContext @ 000001f865079a40] Statistics: 0 seeks, 1 writeouts
[AVIOContext @ 000001f865080040] Statistics: 731 bytes read, 0 seeks
